<?xml version="1.0" encoding="UTF-8"?>
<!DOCTYPE svg PUBLIC "-//W3C//DTD SVG 1.1//EN" "http://www.w3.org/Graphics/SVG/1.1/DTD/svg11.dtd">
<!-- Creator: CorelDRAW 2021 (64-Bit) -->
<svg xmlns="http://www.w3.org/2000/svg" xml:space="preserve" width="55.7016mm" height="58.7864mm" version="1.1" style="shape-rendering:geometricPrecision; text-rendering:geometricPrecision; image-rendering:optimizeQuality; fill-rule:evenodd; clip-rule:evenodd"
viewBox="0 0 5569.02 5877.44"
 xmlns:xlink="http://www.w3.org/1999/xlink"
 xmlns:xodm="http://www.corel.com/coreldraw/odm/2003">
 <defs>
  <style type="text/css">
   <![CDATA[
    .fil1 {fill:#373435;fill-rule:nonzero}
    .fil0 {fill:url(#id0)}
   ]]>
  </style>
  <linearGradient id="id0" gradientUnits="userSpaceOnUse" x1="328.31" y1="1718.21" x2="5268.9" y2="4839.72">
   <stop offset="0" style="stop-opacity:1; stop-color:#BC7738"/>
   <stop offset="0.501961" style="stop-opacity:1; stop-color:#EBE84C"/>
   <stop offset="1" style="stop-opacity:1; stop-color:#BC7738"/>
  </linearGradient>
 </defs>
 <g id="Capa_x0020_1">
  <metadata id="CorelCorpID_0Corel-Layer"/>
  <g id="_2820885135888">
   <path class="fil0" d="M2674.32 1663.74c0,0 116.18,-580.76 385.5,-1003.23 269.26,-422.41 485.7,-723.41 -438.34,-549.15 -923.97,174.26 -2629.51,1275.24 -2555.62,3251.67 73.89,1976.44 2319.48,2840.29 3965.82,2286.12 1646.39,-554.23 1943.6,-2899.37 738.92,-3694.45 -1204.72,-795.09 -2096.28,-290.96 -2096.28,-290.96zm1471.2 1453.53c0,0 -190.06,-364.39 -601.99,-496.43 -411.98,-131.98 -519.05,-618.14 -96.52,-696.24 422.53,-78.08 1354.85,610.79 698.51,1192.67zm296.27 373.71c0,0 187.74,347.48 99.91,662.99 -87.89,315.52 179.68,359.49 247.57,111.86 67.89,-247.63 -163.71,-854.75 -263.55,-922.63 -99.91,-67.89 -155.78,91.85 -83.93,147.78z"/>
   <path class="fil1" d="M2611.89 1651.78c0.32,-1.66 118.6,-592.74 394.42,-1025.34l23.2 -36.32c114.46,-179.14 212.28,-332.34 197.94,-408.51 -13.77,-72.84 -167.67,-88.19 -594.21,-7.77 -524.55,98.84 -1307.53,504.23 -1859.3,1206.32 -398.24,506.65 -674.89,1168.22 -644.62,1980.63 8.93,239.05 50.54,461.6 119.5,666.48 194.44,577.76 607.85,1018.64 1123.86,1309.63 518.75,292.52 1141.26,433.87 1750.32,411.12 304.5,-11.41 605.68,-63.92 888.57,-159.13 456.44,-153.66 806.3,-449.93 1045.55,-812.42 193.8,-293.47 315.27,-630.98 362.43,-971.61 47.09,-340.19 20.14,-683.43 -82.78,-989.21 -110.96,-329.66 -310.75,-616.19 -601.29,-807.95 -1172.36,-773.73 -2028.55,-289.2 -2030.98,-287.93l-117.84 63.29 25.24 -131.28zm501.48 -957.14c-188.12,295.13 -299.78,669.85 -348.15,859.44 288.69,-109.04 1066.89,-295 2040.48,347.58 315.33,208.15 531.69,517.8 651.5,873.73 109.23,324.57 137.97,687.76 88.26,1046.94 -49.64,358.61 -177.86,714.28 -382.31,1024.13 -253.83,384.86 -625.62,699.43 -1111.3,862.89 -294.43,99.1 -607.79,153.78 -924.39,165.63 -631.43,23.59 -1277.58,-123.43 -1816.98,-427.55 -542.15,-305.71 -976.9,-770.17 -1182.11,-1379.87 -72.72,-216.11 -116.63,-450.56 -125.99,-702.29 -31.54,-846.58 256.64,-1535.94 671.51,-2063.75 572.28,-728.23 1388.21,-1149.34 1935.89,-1252.59 519.52,-97.95 713.96,-42.44 742.58,109.24 23.58,125.35 -86.74,298.12 -215.79,500.15l-23.21 36.32z"/>
   <path class="fil1" d="M2954.56 3432.26c-38.9,51.15 -138.16,208.21 -8.34,341.53 26.76,27.52 59.08,18.43 86.02,-7.82 24.9,-24.26 46.66,-60.19 61.24,-100.13 14.7,-40.24 21.93,-83.63 17.91,-122.41 -6.65,-63.46 -50.92,-115.19 -156.83,-111.17zm-91.74 422.59c-233.45,-239.75 19.31,-517.18 20.01,-518l14.99 -16.39 21.88 -2.28c207.62,-21.7 293.82,83.46 307.41,213.35 5.95,56.92 -3.91,118.33 -24.21,173.96 -20.41,55.88 -52.2,107.43 -89.58,143.88 -73.71,71.8 -166.33,91.97 -250.49,5.48z"/>
   <path class="fil1" d="M2759.47 1614.98l-51.16 72.69c-3.91,5.58 -8.95,9.87 -14.61,12.86 -1.34,0.71 -480.59,258.05 -727.73,577.08 -129,166.51 -222.24,341.05 -260.13,511.6 -33.59,151.23 -23.56,299.8 44,436.96 10.12,20.56 1.67,45.49 -18.9,55.61 -20.57,10.12 -45.5,1.67 -55.62,-18.9 -76.46,-155.27 -88.08,-322.36 -50.49,-491.58 40.67,-183.15 139.37,-368.76 275.44,-544.39 237.98,-307.17 677.31,-557.14 745.67,-594.94l56.86 -80.79 -21.15 78.75 77.8 -14.95z"/>
  </g>
 </g>
</svg>
