<?xml version="1.0" standalone="no"?>
<!DOCTYPE svg PUBLIC "-//W3C//DTD SVG 20010904//EN"
 "http://www.w3.org/TR/2001/REC-SVG-20010904/DTD/svg10.dtd">
<svg version="1.0" xmlns="http://www.w3.org/2000/svg"
 width="512.000000pt" height="512.000000pt" viewBox="0 0 512.000000 512.000000"
 preserveAspectRatio="xMidYMid meet">

<g transform="translate(0.000000,512.000000) scale(0.100000,-0.100000)"
fill="#000000" stroke="none">
<path d="M541 5105 c-157 -29 -256 -79 -356 -179 -346 -349 -198 -1107 398
-2036 l80 -125 -6 -105 c-12 -217 22 -469 93 -692 40 -126 155 -373 185 -398
9 -8 34 -14 56 -14 37 -1 42 -6 94 -74 45 -60 53 -77 45 -92 -23 -43 -12 -79
43 -137 375 -400 928 -623 1478 -596 l114 6 125 -81 c482 -309 912 -495 1300
-563 120 -22 359 -17 453 9 126 35 203 78 287 162 205 205 243 537 114 988
-31 108 -50 136 -95 140 -33 3 -35 6 -68 92 l-33 89 21 27 c12 15 21 37 21 49
0 25 -139 302 -220 440 -29 50 -89 145 -132 212 l-80 122 2 185 c1 201 -14
332 -56 501 -189 749 -824 1311 -1599 1415 -49 7 -173 12 -274 12 l-183 -1
-122 79 c-671 431 -1286 637 -1685 565z m2197 -801 l60 -7 58 -71 c160 -195
538 -614 632 -698 44 -40 77 -47 112 -26 18 12 27 6 91 -58 66 -67 70 -72 58
-96 -6 -15 -9 -38 -5 -52 6 -26 192 -197 423 -388 l131 -110 7 -96 c13 -168
-12 -502 -37 -502 -14 0 -269 189 -440 325 -461 368 -896 800 -1274 1266 -109
134 -354 465 -354 479 0 4 37 13 83 19 45 6 93 12 107 14 44 7 285 7 348 1z
m-668 -126 c60 -88 262 -357 359 -478 472 -585 1068 -1145 1686 -1585 61 -43
112 -80 114 -82 7 -5 -58 -171 -102 -258 -22 -44 -66 -122 -99 -172 l-60 -93
-121 83 c-165 111 -483 351 -642 483 -326 271 -667 600 -948 917 -138 155
-162 177 -188 177 -39 0 -79 -39 -79 -78 0 -24 24 -57 112 -158 477 -545 1076
-1078 1645 -1462 62 -41 113 -79 113 -83 0 -9 -184 -185 -216 -205 -23 -16
-28 -15 -85 11 -247 111 -617 363 -955 652 -187 160 -592 564 -750 748 -217
254 -464 590 -464 632 0 23 76 136 161 239 34 41 63 74 64 74 1 0 35 -44 75
-97 40 -54 84 -110 98 -125 32 -35 76 -37 109 -6 35 33 30 77 -15 135 -58 72
-240 326 -310 430 l-62 92 83 54 c122 81 380 204 432 206 6 1 26 -22 45 -51z
m-733 -38 c113 -30 113 -29 41 -86 -97 -76 -213 -189 -291 -287 l-72 -88 -14
33 c-7 18 -22 76 -33 128 -39 188 1 288 127 321 42 11 154 1 242 -21z m2804
-2811 c47 -178 24 -305 -64 -351 -55 -29 -178 -29 -290 1 -118 31 -117 29 -40
91 103 83 201 179 283 279 51 62 77 87 82 78 4 -7 17 -51 29 -98z"/>
<path d="M4125 5106 c-11 -8 -40 -55 -65 -106 l-45 -92 -90 -45 c-114 -57
-125 -67 -125 -114 0 -46 14 -58 130 -114 l82 -40 49 -98 c54 -107 78 -128
127 -111 21 7 39 32 78 108 l52 100 88 44 c113 56 124 66 124 113 0 46 -14 58
-130 114 l-82 40 -49 97 c-58 116 -92 141 -144 104z m118 -331 c20 -11 37 -22
37 -25 0 -3 -17 -14 -38 -25 -21 -11 -46 -36 -57 -57 l-19 -37 -21 37 c-11 20
-37 46 -58 57 -20 11 -37 22 -37 25 0 3 17 14 38 25 21 11 46 36 57 57 l19 37
21 -37 c11 -20 37 -46 58 -57z"/>
<path d="M3330 4902 c-13 -10 -23 -33 -27 -59 -5 -38 -8 -41 -44 -47 -107 -17
-106 -146 1 -146 38 0 40 -2 40 -30 0 -37 23 -85 45 -94 53 -20 103 16 107 77
3 42 3 42 45 45 45 3 83 37 83 73 0 33 -42 70 -88 76 -41 5 -42 7 -42 43 0 67
-69 103 -120 62z"/>
<path d="M915 726 c-11 -8 -40 -55 -65 -106 l-45 -92 -96 -48 c-107 -54 -122
-68 -121 -111 1 -43 14 -55 120 -108 l94 -47 52 -100 c39 -76 57 -101 78 -108
49 -17 73 4 127 111 l49 98 92 45 c101 49 120 68 120 116 0 40 -18 55 -130
109 l-82 40 -49 97 c-58 116 -92 141 -144 104z m118 -331 c20 -11 37 -22 37
-25 0 -3 -17 -14 -37 -25 -21 -11 -47 -37 -59 -59 l-22 -39 -21 42 c-14 27
-34 48 -56 58 -19 9 -35 20 -35 23 0 3 16 14 35 23 22 10 42 31 56 58 l21 42
22 -39 c12 -22 38 -48 59 -59z"/>
<path d="M1700 582 c-13 -10 -23 -33 -27 -59 -5 -38 -8 -41 -44 -47 -107 -17
-106 -146 1 -146 38 0 40 -2 40 -30 0 -37 23 -85 45 -94 53 -20 103 16 107 77
3 42 3 42 45 45 45 3 83 37 83 73 0 33 -42 70 -88 76 -41 5 -42 7 -42 43 0 67
-69 103 -120 62z"/>
</g>
</svg>
